<svg width="19" height="41" viewBox="0 0 19 41" fill="none" xmlns="http://www.w3.org/2000/svg">
<path d="M0.000250377 21.7016H11.3357H15.7366C17.3934 21.7016 18.7366 23.0447 18.7366 24.7016V38C18.7366 39.6568 17.3934 41 15.7366 41H3.00025C1.3434 41 0.000250377 39.6569 0.000250377 38V21.7016Z" fill="#67A8D2"/>
<path d="M14.6146 0.154782C2.84817 1.95347 -0.0309769 15.2688 0.000250377 21.7016H11.3357C11.5231 16.8301 12.2726 14.4881 13.4904 12.8018C14.7083 11.1156 16.3009 10.9282 17.5187 10.8345C18.493 10.7596 18.799 9.80401 18.8303 9.3356V1.46634C18.8303 0.566994 17.9559 0.154786 17.5187 0.0611C16.9566 -0.00135451 15.5889 -0.0700544 14.6146 0.154782Z" fill="#67A8D2"/>
</svg>
