<svg width="158" height="168" viewBox="0 0 158 168" fill="none" xmlns="http://www.w3.org/2000/svg">
<path d="M83.0569 1.53312e-05C85.5265 1.53312e-05 87.7357 1.53722 88.5673 3.83881L94.4977 20.2776C96.6229 20.8068 98.4457 21.336 99.9913 21.8904C101.68 22.4952 103.855 23.4108 106.543 24.6624L120.353 17.3544C121.48 16.7572 122.771 16.5417 124.031 16.7401C125.291 16.9385 126.453 17.5402 127.342 18.4548L139.488 31.0128C141.101 32.6844 141.554 35.1288 140.647 37.2624L134.171 52.4412C135.246 54.4152 136.103 56.1036 136.758 57.5148C137.464 59.052 138.337 61.1688 139.379 63.8988L154.474 70.3668C156.742 71.3328 158.144 73.6008 157.993 76.0284L156.884 93.4584C156.809 94.5908 156.402 95.6759 155.715 96.5794C155.028 97.4828 154.091 98.1646 153.02 98.5404L138.724 103.622C138.312 105.596 137.884 107.285 137.43 108.713C136.698 110.918 135.863 113.088 134.927 115.214L142.109 131.09C142.616 132.206 142.752 133.454 142.498 134.653C142.244 135.852 141.613 136.938 140.698 137.752L127.039 149.948C126.14 150.748 125.017 151.254 123.822 151.398C122.627 151.542 121.417 151.318 120.353 150.755L106.274 143.296C104.072 144.462 101.8 145.491 99.4705 146.378L93.3217 148.68L87.8617 163.8C87.4571 164.907 86.7272 165.866 85.7678 166.551C84.8084 167.237 83.6643 167.616 82.4857 167.639L66.5257 168C65.3158 168.032 64.1257 167.688 63.1194 167.015C62.113 166.343 61.3398 165.375 60.9061 164.245L54.4717 147.218C52.2763 146.468 50.1026 145.656 47.9533 144.782C46.1953 144.022 44.4639 143.201 42.7621 142.321L26.8021 149.142C25.7505 149.591 24.5911 149.724 23.4651 149.526C22.3391 149.327 21.2951 148.806 20.4601 148.025L8.64968 136.945C7.77038 136.124 7.17155 135.047 6.9379 133.867C6.70425 132.686 6.8476 131.462 7.34768 130.368L14.2105 115.416C13.2978 113.645 12.4516 111.841 11.6737 110.006C10.7657 107.761 9.92527 105.49 9.15368 103.194L-5.88232 98.616C-7.10451 98.2466 -8.17052 97.484 -8.9148 96.4465C-9.65908 95.4091 -10.04 94.1549 -9.99832 92.8788L-9.41032 76.7424C-9.36846 75.6896 -9.03957 74.6682 -8.4592 73.7888C-7.87884 72.9093 -7.06908 72.2053 -6.11752 71.7528L9.65768 64.176C10.3885 61.4964 11.0269 59.4132 11.5897 57.8928C12.3821 55.8621 13.2622 53.8666 14.2273 51.912L7.38968 37.464C6.87078 36.3668 6.7132 35.1333 6.93961 33.9409C7.16601 32.7485 7.76474 31.6587 8.64968 30.828L20.4433 19.6896C21.27 18.9099 22.3045 18.3856 23.4222 18.18C24.5398 17.9743 25.6931 18.096 26.7433 18.5304L42.6865 25.116C44.4505 23.94 46.0465 22.9908 47.4913 22.2264C49.2133 21.3108 51.5149 20.3532 54.4129 19.32L59.9569 3.85562C60.3667 2.72387 61.1159 1.74622 62.1022 1.05616C63.0884 0.366094 64.2636 -0.00274051 65.4673 1.53312e-05H83.0569ZM74.2033 58.9596C60.2005 58.9596 48.8521 70.1736 48.8521 84.0168C48.8521 97.86 60.2005 109.082 74.2033 109.082C88.1977 109.082 99.5461 97.86 99.5461 84.0168C99.5461 70.1736 88.2061 58.9596 74.2033 58.9596Z" fill="#67A8D2"/>
</svg>
